<?xml version="1.0" encoding="utf-8"?>
<!-- Generator: Adobe Illustrator 25.0.1, SVG Export Plug-In . SVG Version: 6.00 Build 0)  -->
<svg version="1.1" id="Layer_1" xmlns="http://www.w3.org/2000/svg" xmlns:xlink="http://www.w3.org/1999/xlink" x="0px" y="0px"
	 viewBox="0 0 135 135" style="enable-background:new 0 0 135 135;" xml:space="preserve">
<style type="text/css">
	.st0{fill:#FFFFFF;}
</style>
<g>
	<circle class="st0" cx="7.5" cy="7.5" r="7.5"/>
</g>
<g>
	<circle class="st0" cx="37.5" cy="7.5" r="7.5"/>
</g>
<g>
	<circle class="st0" cx="67.5" cy="7.5" r="7.5"/>
</g>
<g>
	<circle class="st0" cx="97.5" cy="7.5" r="7.5"/>
</g>
<g>
	<circle class="st0" cx="127.5" cy="7.5" r="7.5"/>
</g>
<g>
	<circle class="st0" cx="7.5" cy="37.5" r="7.5"/>
</g>
<g>
	<circle class="st0" cx="37.5" cy="37.5" r="7.5"/>
</g>
<g>
	<circle class="st0" cx="67.5" cy="37.5" r="7.5"/>
</g>
<g>
	<circle class="st0" cx="97.5" cy="37.5" r="7.5"/>
</g>
<g>
	<circle class="st0" cx="127.5" cy="37.5" r="7.5"/>
</g>
<g>
	<circle class="st0" cx="7.5" cy="67.5" r="7.5"/>
</g>
<g>
	<circle class="st0" cx="37.5" cy="67.5" r="7.5"/>
</g>
<g>
	<circle class="st0" cx="67.5" cy="67.5" r="7.5"/>
</g>
<g>
	<circle class="st0" cx="97.5" cy="67.5" r="7.5"/>
</g>
<g>
	<circle class="st0" cx="127.5" cy="67.5" r="7.5"/>
</g>
<g>
	<circle class="st0" cx="7.5" cy="97.5" r="7.5"/>
</g>
<g>
	<circle class="st0" cx="37.5" cy="97.5" r="7.5"/>
</g>
<g>
	<circle class="st0" cx="67.5" cy="97.5" r="7.5"/>
</g>
<g>
	<circle class="st0" cx="97.5" cy="97.5" r="7.5"/>
</g>
<g>
	<circle class="st0" cx="127.5" cy="97.5" r="7.5"/>
</g>
<g>
	<circle class="st0" cx="7.5" cy="127.5" r="7.5"/>
</g>
<g>
	<circle class="st0" cx="37.5" cy="127.5" r="7.5"/>
</g>
<g>
	<circle class="st0" cx="67.5" cy="127.5" r="7.5"/>
</g>
<g>
	<circle class="st0" cx="97.5" cy="127.5" r="7.5"/>
</g>
<g>
	<circle class="st0" cx="127.5" cy="127.5" r="7.5"/>
</g>
</svg>
