<svg xmlns="http://www.w3.org/2000/svg" viewBox="0 0 1 1"><defs><style>.cls-1{fill:#fff;}</style></defs><g id="Layer_2" data-name="Layer 2"><g id="Layer_1-2" data-name="Layer 1"><circle class="cls-1" cx="0.07" cy="0.06" r="0.06"/><circle class="cls-1" cx="0.28" cy="0.07" r="0.06"/><circle class="cls-1" cx="0.5" cy="0.06" r="0.06"/><circle class="cls-1" cx="0.72" cy="0.06" r="0.06"/><circle class="cls-1" cx="0.94" cy="0.06" r="0.06"/><circle class="cls-1" cx="0.06" cy="0.28" r="0.06"/><circle class="cls-1" cx="0.28" cy="0.28" r="0.06"/><circle class="cls-1" cx="0.5" cy="0.28" r="0.06"/><circle class="cls-1" cx="0.72" cy="0.28" r="0.06"/><circle class="cls-1" cx="0.93" cy="0.28" r="0.06"/><circle class="cls-1" cx="0.07" cy="0.5" r="0.06"/><circle class="cls-1" cx="0.28" cy="0.5" r="0.06"/><circle class="cls-1" cx="0.5" cy="0.5" r="0.06"/><circle class="cls-1" cx="0.72" cy="0.5" r="0.06"/><circle class="cls-1" cx="0.94" cy="0.5" r="0.06"/><circle class="cls-1" cx="0.06" cy="0.72" r="0.06"/><circle class="cls-1" cx="0.28" cy="0.72" r="0.06"/><circle class="cls-1" cx="0.5" cy="0.71" r="0.06"/><circle class="cls-1" cx="0.71" cy="0.72" r="0.06"/><circle class="cls-1" cx="0.93" cy="0.72" r="0.06"/><circle class="cls-1" cx="0.06" cy="0.94" r="0.06"/><circle class="cls-1" cx="0.28" cy="0.94" r="0.06"/><circle class="cls-1" cx="0.5" cy="0.93" r="0.06"/><circle class="cls-1" cx="0.72" cy="0.94" r="0.06"/><circle class="cls-1" cx="0.93" cy="0.94" r="0.06"/></g></g></svg>