<svg width="40" height="40" viewBox="0 0 40 40" fill="none" xmlns="http://www.w3.org/2000/svg">
<path d="M16.6667 24.9988C15.5789 26.1645 14.982 27.7045 15 29.2988V34.9988M23.3333 24.9988C24.4211 26.1645 25.018 27.7045 25 29.2988V34.9988M15 31.7488C13.5092 32.3425 11.8922 32.5489 10.3 32.3488C7.76667 31.4821 8.43333 29.1821 7.13333 28.2321C6.50863 27.7855 5.76728 27.5307 5 27.4988M31.6667 16.2488C31.6667 21.2488 28.4167 24.9988 20 24.9988C11.5833 24.9988 8.33333 21.2488 8.33333 16.2488C8.29216 14.5141 8.68155 12.7962 9.46667 11.2488C8.9 8.79878 9.11667 5.78211 10.3333 5.18211C11.55 4.58211 14.1167 5.68211 16.2333 7.09878C17.4766 6.87691 18.7371 6.76537 20 6.76545C21.2619 6.75436 22.5224 6.85475 23.7667 7.06545C25.8833 5.64878 28.5667 4.59878 29.6667 5.14878C30.7667 5.69878 31.1 8.76545 30.5333 11.2154C31.3238 12.7729 31.7134 14.5029 31.6667 16.2488Z" stroke="#D8D2E1" stroke-opacity="0.6" stroke-width="2" stroke-linecap="round" stroke-linejoin="round"/>
</svg>
