<svg width="40" height="40" viewBox="0 0 40 40" fill="none" xmlns="http://www.w3.org/2000/svg">
<path d="M13.3333 18.3333V26.6667M18.3333 16.6667V20M18.3333 26.6667V20.3828C18.3333 19.1911 19.1745 18.1651 20.343 17.9314L22.6796 17.4641C24.7423 17.0516 26.6667 18.6292 26.6667 20.7327V26.6667M13.3333 13.3333H13.35M5 20C5 15.8107 5 13.716 5.58923 12.0321C6.6446 9.01598 9.01598 6.6446 12.0321 5.58923C13.716 5 15.8106 5 20 5C24.1893 5 26.2839 5 27.968 5.58923C30.984 6.6446 33.3554 9.01598 34.4108 12.0321C35 13.716 35 15.8107 35 20C35 24.1894 35 26.284 34.4108 27.968C33.3554 30.9841 30.984 33.3554 27.968 34.4108C26.2839 35 24.1893 35 20 35C15.8106 35 13.716 35 12.0321 34.4108C9.01598 33.3554 6.6446 30.9841 5.58923 27.968C5 26.284 5 24.1894 5 20Z" stroke="#D8D2E1" stroke-opacity="0.6" stroke-width="2" stroke-linecap="round" stroke-linejoin="round"/>
</svg>
