<svg width="40" height="40" viewBox="0 0 40 40" fill="none" xmlns="http://www.w3.org/2000/svg">
<path d="M34.0164 12.015L28.9956 15.9201C25.7851 18.4171 24.1799 19.6656 22.3997 20.1444C20.8294 20.5668 19.1706 20.5668 17.6003 20.1444C15.8201 19.6656 14.2149 18.4171 11.0044 15.9201L5.98364 12.015M34.0164 12.015C33.2927 10.7802 32.212 9.77553 30.9049 9.12806C29.3006 8.33331 27.2004 8.33331 23 8.33331H17C12.7996 8.33331 10.6994 8.33331 9.09507 9.12806C7.78804 9.77553 6.70734 10.7802 5.98364 12.015M34.0164 12.015C34.074 12.1135 34.1295 12.2133 34.1825 12.3146C35 13.8744 35 15.9163 35 20C35 24.0837 35 26.1256 34.1825 27.6853C33.4635 29.0573 32.3161 30.1728 30.9049 30.8719C29.3006 31.6666 27.2004 31.6666 23 31.6666H17C12.7996 31.6666 10.6994 31.6666 9.09507 30.8719C7.68386 30.1728 6.5365 29.0573 5.81745 27.6853C5 26.1256 5 24.0837 5 20C5 15.9163 5 13.8744 5.81745 12.3146C5.87053 12.2133 5.92595 12.1135 5.98364 12.015" stroke="#D8D2E1" stroke-opacity="0.6" stroke-width="2" stroke-linecap="round" stroke-linejoin="round"/>
</svg>
